HIERARCHY
ROOT Hips
{
  OFFSET 5.79605 93.2874 -478.23
  CHANNELS 6 Xposition Yposition Zposition Zrotation Xrotation Yrotation
  JOINT Spine
  {
    OFFSET 0 4.73261 7.09891
    CHANNELS 3 Zrotation Xrotation Yrotation
    JOINT Spine1
    {
      OFFSET 0 0 9.46522
      CHANNELS 3 Zrotation Xrotation Yrotation
      JOINT Spine2
      {
        OFFSET 0 0 9.46522
        CHANNELS 3 Zrotation Xrotation Yrotation
        JOINT Spine3
        {
          OFFSET 0 0 9.46522
          CHANNELS 3 Zrotation Xrotation Yrotation
          JOINT Neck
          {
            OFFSET 0 -3.54946 24.8462
            CHANNELS 3 Zrotation Xrotation Yrotation
            JOINT Head
            {
              OFFSET 0 0 13.0147
              CHANNELS 3 Zrotation Xrotation Yrotation
              End Site
              {
                OFFSET 0 0 15.3218
              }
            }
          }
          JOINT RightShoulder
          {
            OFFSET -3.19949 -5.33248 17.2772
            CHANNELS 3 Zrotation Xrotation Yrotation
            JOINT RightArm
            {
              OFFSET 15.8908 0 0
              CHANNELS 3 Zrotation Xrotation Yrotation
              JOINT RightForeArm
              {
                OFFSET 29.5436 0 0
                CHANNELS 3 Zrotation Xrotation Yrotation
                JOINT RightHand
                {
                  OFFSET 23.2652 0 0
                  CHANNELS 3 Zrotation Xrotation Yrotation
                  JOINT RightHandEnd
                  {
                    OFFSET 6.96115 0 0
                    CHANNELS 3 Zrotation Xrotation Yrotation
                    End Site
                    {
                      OFFSET 6.96115 0 0
                    }
                  }
                  JOINT RightHandThumb1
                  {
                    OFFSET 2.78446 -4.64077 1.85631
                    CHANNELS 3 Zrotation Xrotation Yrotation
                    JOINT RightHandThumb2
                    {
                      OFFSET 6.96115 0 0
                      CHANNELS 3 Zrotation Xrotation Yrotation
                      End Site
                      {
                        OFFSET 0 0 0
                      }
                    }
                  }
                }
              }
            }
          }
          JOINT LeftShoulder
          {
            OFFSET 3.19949 -5.33248 17.2772
            CHANNELS 3 Zrotation Xrotation Yrotation
            JOINT LeftArm
            {
              OFFSET 15.8908 0 0
              CHANNELS 3 Zrotation Xrotation Yrotation
              JOINT LeftForeArm
              {
                OFFSET 29.5436 0 0
                CHANNELS 3 Zrotation Xrotation Yrotation
                JOINT LeftHand
                {
                  OFFSET 23.2652 0 0
                  CHANNELS 3 Zrotation Xrotation Yrotation
                  JOINT LeftHandEnd
                  {
                    OFFSET 6.96115 0 0
                    CHANNELS 3 Zrotation Xrotation Yrotation
                    End Site
                    {
                      OFFSET 6.96115 0 0
                    }
                  }
                  JOINT LeftHandThumb1
                  {
                    OFFSET 2.78446 -4.64077 -1.85631
                    CHANNELS 3 Zrotation Xrotation Yrotation
                    JOINT LeftHandThumb2
                    {
                      OFFSET 6.96115 0 0
                      CHANNELS 3 Zrotation Xrotation Yrotation
                      End Site
                      {
                        OFFSET 0 0 0
                      }
                    }
                  }
                }
              }
            }
          }
        }
      }
    }
  }
  JOINT RightUpLeg
  {
    OFFSET -9.49182 0 -2.77289
    CHANNELS 3 Zrotation Xrotation Yrotation
    JOINT RightLeg
    {
      OFFSET 41.2118 0 0
      CHANNELS 3 Zrotation Xrotation Yrotation
      JOINT RightFoot
      {
        OFFSET 45.6091 0 0
        CHANNELS 3 Zrotation Xrotation Yrotation
        JOINT RightToeBase
        {
          OFFSET 17.0969 0 0
          CHANNELS 3 Zrotation Xrotation Yrotation
          End Site
          {
            OFFSET 7.67878 0 0
          }
        }
      }
    }
  }
  JOINT LeftUpLeg
  {
    OFFSET 9.49182 0 -2.77289
    CHANNELS 3 Zrotation Xrotation Yrotation
    JOINT LeftLeg
    {
      OFFSET 41.2118 0 0
      CHANNELS 3 Zrotation Xrotation Yrotation
      JOINT LeftFoot
      {
        OFFSET 45.6091 0 0
        CHANNELS 3 Zrotation Xrotation Yrotation
        JOINT LeftToeBase
        {
          OFFSET 17.0969 0 0
          CHANNELS 3 Zrotation Xrotation Yrotation
          End Site
          {
            OFFSET 7.67878 0 0
          }
        }
      }
    }
  }
}
MOTION
Frames:	4
Frame Time:	0.00833333
2.89256 92.3477 -267.8 137.013 -85.6795 136.435 -0.382137 -7.6379 3.77897 0.00182177 6.24333 1.8918 -10.7325 7.2827 -1.81768 -0.651435 0.547276 -1.5243 -1.94573 9.07552 -1.96632 8.36534 -18.1794 2.67826 -10.782 9.77376 -176.934 -29.2002 -24.5248 -77.1312 -109.082 2.11666e-12 1.36764e-12 3.8587 -6.80068 26.4363 3.8814e-08 -90 3.8814e-08 165 10 -180 1.92835e-10 -2.91703e-09 -1.93938e-10 -8.76294 4.90805 -11.8155 -29.7408 -15.2403 77.1471 -117.404 -3.17101e-12 -1.19716e-11 -6.5099 5.50251 -14.7722 -5.97139e-08 90 5.97139e-08 165 10 -180 -9.08955e-11 -1.98619e-10 4.10723e-10 -8.21523 -24.0071 88.3076 26.2136 0.00887756 -4.01155e-05 -70.7779 1.74626 0.498078 -21.3994 -2.97943e-10 -1.00744e-12 -3.89969 7.76496 92.7777 38.9152 0.0106027 0.000341144 -71.4902 -1.19866 -10.9901 -34.8192 7.91918e-12 -6.33646e-12 
3.08556 92.2301 -269.399 135.568 -85.9684 134.848 -0.499919 -7.64496 3.79513 -0.0020341 6.29575 1.8631 -10.794 7.20364 -1.7325 -0.667417 0.496995 -1.50857 -1.87722 8.76013 -1.91795 8.69241 -18.2358 2.82765 -10.7048 9.89247 -176.254 -29.4082 -24.5244 -77.2479 -109.44 1.55609e-12 1.03177e-11 3.80729 -6.66069 26.3369 7.16567e-08 -90 7.16567e-08 165 10 -180 2.40631e-10 -5.02247e-09 -3.66138e-10 -8.98376 4.75812 -12.1532 -29.954 -16.0251 76.1996 -117.931 -2.2741e-12 -1.53716e-11 -6.57861 4.75227 -14.4751 -3.58283e-08 90 3.58283e-08 165 10 -180 8.3453e-11 -2.93842e-10 6.73791e-10 -7.77088 -24.8441 88.8118 25.55 0.011458 -0.000156506 -69.9024 1.24372 -2.61666 -21.5806 5.2858e-10 1.50067e-11 -4.8441 8.52205 93.3217 36.1976 0.00747096 0.000414736 -73.7028 -1.90553 -11.0013 -35.9925 -3.22309e-11 4.2858e-13 
3.27191 92.0456 -270.996 134.682 -86.25 133.87 -0.622567 -7.6167 3.76762 -0.00728426 6.36151 1.81733 -10.8019 7.13284 -1.65421 -0.676018 0.447816 -1.48826 -1.80539 8.45525 -1.83873 8.96823 -18.3951 2.97211 -10.5967 10.015 -175.582 -29.6341 -24.4175 -77.3337 -109.831 8.8658e-13 1.73499e-11 3.69831 -6.57899 26.1352 2.98569e-09 -90 2.98569e-09 165 10 -180 2.44854e-10 -6.82638e-09 -4.60113e-10 -9.16638 4.63024 -12.486 -30.1915 -16.8156 75.1874 -118.44 -1.28494e-12 -1.64021e-11 -6.65243 3.98994 -14.2133 -5.97139e-08 90 5.97139e-08 165 10 -180 2.13315e-10 -3.14398e-10 8.39827e-10 -7.19472 -25.7738 89.2903 25.3934 0.0144194 -0.000184522 -69.3276 0.827161 -5.58515 -21.7495 1.30118e-09 3.22975e-11 -5.72366 9.11047 93.7932 33.732 0.00357224 0.000220704 -76.2698 -2.76478 -11.0049 -36.5821 -6.52674e-11 6.3794e-12 
3.45249 91.8372 -272.596 135.29 -86.4953 134.403 -0.723489 -7.52626 3.72346 -0.0106304 6.45042 1.77245 -10.7604 7.08188 -1.56967 -0.683648 0.400996 -1.45934 -1.73529 8.17262 -1.73686 9.1651 -18.6268 3.05075 -10.4579 10.1128 -175.017 -29.8549 -24.2738 -77.3324 -110.244 5.25587e-13 1.86921e-11 3.58253 -6.54836 25.9122 2.08999e-08 -90 2.08999e-08 165 10 -180 2.67859e-10 -8.72038e-09 -4.48691e-10 -9.31601 4.5024 -12.7735 -30.4691 -17.5709 74.0897 -118.885 -8.6193e-13 -1.38354e-11 -6.74116 3.27322 -14.047 -1.43313e-07 90 1.43313e-07 165 10 -180 2.47695e-10 -2.84128e-10 7.66503e-10 -6.46256 -26.8284 89.7445 26.1068 0.0183531 5.50161e-13 -69.0495 0.866793 -7.59854 -21.9435 1.65998e-09 4.36746e-11 -6.35786 9.45941 94.1814 31.8208 0.00117993 7.71285e-14 -78.8811 -3.33299 -11.1007 -36.3976 -6.98293e-11 9.43909e-12 
